<svg xmlns="http://www.w3.org/2000/svg" viewBox="0 0 32 32">
  <rect width="32" height="32" rx="6" fill="#1a1a1a"/>
  <!-- Left flame lobe -->
  <path d="M11 26 C9 26 7 23 8 19 C8.5 16.5 10 15 10 15 C10 17 11 18 11 18 C11 15 12 12 14 9 C14 9 14 13 15 15 C16 13 16 10 15 7 C15 7 19 10 19 15 C19 15 20 13 20 11 C20 11 22 14 22 18 C23 22 21 26 19 26 C17 28 15 28 13 27 C12.5 26.8 11.5 26 11 26Z" fill="#E05C1A"/>
  <!-- Inner highlight -->
  <path d="M16 17 C15.5 18.5 15.5 21 16 23 C16.5 21 16.5 18.5 16 17Z" fill="#f8a44c" opacity="0.7"/>
</svg>
